<svg width="28" height="25" viewBox="0 0 28 25" fill="none" xmlns="http://www.w3.org/2000/svg">
<path d="M14.0006 2.16461C12.471 0.772624 10.4689 6.46793e-05 8.39089 0C7.29104 0.0011333 6.20228 0.217516 5.18725 0.636696C4.17223 1.05588 3.25099 1.66958 2.47654 2.44248C-0.826683 5.72552 -0.825279 10.8606 2.47935 14.1297L12.7723 24.3164C13.0109 24.7319 13.4714 25 14.0006 25C14.2179 24.9979 14.4317 24.9454 14.6248 24.8467C14.8179 24.748 14.9849 24.6059 15.1125 24.4318L25.5219 14.1297C28.8265 10.8592 28.8265 5.72552 25.5191 2.43692C24.745 1.66544 23.8245 1.05299 22.8105 0.634772C21.7964 0.216558 20.7089 0.000833064 19.6103 0C17.5324 0.000336166 15.5304 0.772859 14.0006 2.16461ZM23.5341 4.40147C25.7282 6.58414 25.7296 9.99361 23.5369 12.1652L14.0006 21.603L4.46437 12.1652C2.27158 9.99361 2.27298 6.58414 4.46156 4.40702C5.52847 3.35667 6.92389 2.7787 8.39089 2.7787C9.8579 2.7787 11.2477 3.35667 12.3062 4.40425L13.0081 5.09892C13.1384 5.22806 13.2931 5.3305 13.4634 5.4004C13.6337 5.4703 13.8162 5.50628 14.0006 5.50628C14.185 5.50628 14.3675 5.4703 14.5379 5.4004C14.7082 5.3305 14.8629 5.22806 14.9931 5.09892L15.695 4.40425C17.8176 2.30771 21.4143 2.31327 23.5341 4.40147Z" fill="#1E232A" fill-opacity="0.63"/>
</svg>
